{
	"patcher" : 	{
		"fileversion" : 1,
		"appversion" : 		{
			"major" : 7,
			"minor" : 3,
			"revision" : 5,
			"architecture" : "x86",
			"modernui" : 1
		}
,
		"rect" : [ 34.0, 79.0, 1212.0, 682.0 ],
		"bglocked" : 0,
		"openinpresentation" : 1,
		"default_fontsize" : 12.0,
		"default_fontface" : 0,
		"default_fontname" : "Arial",
		"gridonopen" : 1,
		"gridsize" : [ 15.0, 15.0 ],
		"gridsnaponopen" : 1,
		"objectsnaponopen" : 1,
		"statusbarvisible" : 2,
		"toolbarvisible" : 1,
		"lefttoolbarpinned" : 0,
		"toptoolbarpinned" : 0,
		"righttoolbarpinned" : 0,
		"bottomtoolbarpinned" : 0,
		"toolbars_unpinned_last_save" : 0,
		"tallnewobj" : 0,
		"boxanimatetime" : 200,
		"enablehscroll" : 1,
		"enablevscroll" : 1,
		"devicewidth" : 0.0,
		"description" : "",
		"digest" : "",
		"tags" : "",
		"style" : "",
		"subpatcher_template" : "",
		"boxes" : [ 			{
				"box" : 				{
					"id" : "obj-116",
					"maxclass" : "newobj",
					"numinlets" : 1,
					"numoutlets" : 2,
					"outlettype" : [ "bang", "bang" ],
					"patching_rect" : [ 808.5, 170.0, 34.0, 22.0 ],
					"style" : "",
					"text" : "t b b"
				}

			}
, 			{
				"box" : 				{
					"id" : "obj-115",
					"maxclass" : "message",
					"numinlets" : 2,
					"numoutlets" : 1,
					"outlettype" : [ "" ],
					"patching_rect" : [ 808.5, 201.0, 77.0, 22.0 ],
					"style" : "",
					"text" : "col 0 width 0"
				}

			}
, 			{
				"box" : 				{
					"fontsize" : 16.0,
					"id" : "obj-113",
					"maxclass" : "textbutton",
					"numinlets" : 1,
					"numoutlets" : 3,
					"outlettype" : [ "", "", "int" ],
					"outputmode" : 0,
					"parameter_enable" : 0,
					"patching_rect" : [ 669.0, 225.0, 113.0, 32.0 ],
					"presentation" : 1,
					"presentation_rect" : [ 499.5, 116.0, 118.0, 35.0 ],
					"style" : "",
					"text" : "Clear",
					"texton" : "Clear"
				}

			}
, 			{
				"box" : 				{
					"id" : "obj-112",
					"maxclass" : "newobj",
					"numinlets" : 2,
					"numoutlets" : 2,
					"outlettype" : [ "", "" ],
					"patching_rect" : [ 548.0, 383.0, 79.0, 22.0 ],
					"style" : "",
					"text" : "route symbol"
				}

			}
, 			{
				"box" : 				{
					"id" : "obj-104",
					"maxclass" : "message",
					"numinlets" : 2,
					"numoutlets" : 1,
					"outlettype" : [ "" ],
					"patching_rect" : [ 452.0, 420.0, 60.0, 22.0 ],
					"style" : "",
					"text" : "delete $1"
				}

			}
, 			{
				"box" : 				{
					"id" : "obj-92",
					"maxclass" : "newobj",
					"numinlets" : 1,
					"numoutlets" : 2,
					"outlettype" : [ "int", "int" ],
					"patching_rect" : [ 452.0, 383.0, 29.5, 22.0 ],
					"style" : "",
					"text" : "t i i"
				}

			}
, 			{
				"box" : 				{
					"id" : "obj-83",
					"maxclass" : "message",
					"numinlets" : 2,
					"numoutlets" : 1,
					"outlettype" : [ "" ],
					"patching_rect" : [ 623.0, 265.0, 37.0, 22.0 ],
					"style" : "",
					"text" : "clear"
				}

			}
, 			{
				"box" : 				{
					"id" : "obj-81",
					"maxclass" : "newobj",
					"numinlets" : 2,
					"numoutlets" : 1,
					"outlettype" : [ "int" ],
					"patching_rect" : [ 452.0, 349.0, 29.5, 22.0 ],
					"style" : "",
					"text" : "- 1"
				}

			}
, 			{
				"box" : 				{
					"id" : "obj-80",
					"maxclass" : "newobj",
					"numinlets" : 2,
					"numoutlets" : 1,
					"outlettype" : [ "int" ],
					"patching_rect" : [ 452.0, 323.0, 29.5, 22.0 ],
					"style" : "",
					"text" : "i 0"
				}

			}
, 			{
				"box" : 				{
					"id" : "obj-79",
					"maxclass" : "newobj",
					"numinlets" : 2,
					"numoutlets" : 2,
					"outlettype" : [ "", "" ],
					"patching_rect" : [ 513.0, 351.0, 54.0, 22.0 ],
					"style" : "",
					"text" : "gate 2 1"
				}

			}
, 			{
				"box" : 				{
					"id" : "obj-78",
					"maxclass" : "newobj",
					"numinlets" : 1,
					"numoutlets" : 4,
					"outlettype" : [ "bang", "int", "length", "int" ],
					"patching_rect" : [ 452.0, 234.0, 80.0, 22.0 ],
					"style" : "",
					"text" : "t b 2 length 1"
				}

			}
, 			{
				"box" : 				{
					"id" : "obj-69",
					"maxclass" : "message",
					"numinlets" : 2,
					"numoutlets" : 1,
					"outlettype" : [ "" ],
					"patching_rect" : [ 889.5, 201.0, 72.0, 22.0 ],
					"style" : "",
					"text" : "refer queue"
				}

			}
, 			{
				"box" : 				{
					"id" : "obj-66",
					"maxclass" : "message",
					"numinlets" : 2,
					"numoutlets" : 1,
					"outlettype" : [ "" ],
					"patching_rect" : [ 548.0, 265.0, 67.0, 22.0 ],
					"style" : "",
					"text" : "insert 0 $1"
				}

			}
, 			{
				"box" : 				{
					"id" : "obj-64",
					"maxclass" : "newobj",
					"numinlets" : 1,
					"numoutlets" : 4,
					"outlettype" : [ "", "", "", "" ],
					"patching_rect" : [ 548.0, 323.0, 65.0, 22.0 ],
					"saved_object_attributes" : 					{
						"embed" : 0
					}
,
					"style" : "",
					"text" : "coll queue"
				}

			}
, 			{
				"box" : 				{
					"coldef" : [ [ 0, 2, 1, 0.0, 0.0, 0.0, 1.0, 1, 0.0, 0.0, 0.0, 1.0, -1, -1, -1 ] ],
					"cols" : 2,
					"colwidth" : 450,
					"fontface" : 0,
					"fontname" : "Arial",
					"fontsize" : 16.0,
					"grid" : 0,
					"hsync" : 0,
					"id" : "obj-61",
					"maxclass" : "jit.cellblock",
					"numinlets" : 2,
					"numoutlets" : 4,
					"outlettype" : [ "list", "", "", "" ],
					"patching_rect" : [ 808.5, 234.0, 386.5, 193.0 ],
					"presentation" : 1,
					"presentation_rect" : [ 11.0, 116.0, 481.0, 200.0 ],
					"rows" : 1,
					"selmode" : 0,
					"selsync" : 0,
					"vsync" : 0
				}

			}
, 			{
				"box" : 				{
					"id" : "obj-41",
					"maxclass" : "comment",
					"numinlets" : 1,
					"numoutlets" : 0,
					"patching_rect" : [ 1045.0, 656.0, 150.0, 20.0 ],
					"presentation" : 1,
					"presentation_rect" : [ 389.0, 53.0, 55.0, 20.0 ],
					"style" : "",
					"text" : "font size"
				}

			}
, 			{
				"box" : 				{
					"id" : "obj-39",
					"maxclass" : "newobj",
					"numinlets" : 1,
					"numoutlets" : 1,
					"outlettype" : [ "" ],
					"patching_rect" : [ 869.0, 528.0, 79.0, 22.0 ],
					"style" : "",
					"text" : "loadmess 30"
				}

			}
, 			{
				"box" : 				{
					"fontsize" : 16.0,
					"id" : "obj-38",
					"maxclass" : "number",
					"numinlets" : 1,
					"numoutlets" : 2,
					"outlettype" : [ "", "bang" ],
					"parameter_enable" : 0,
					"patching_rect" : [ 869.0, 554.5, 55.0, 26.0 ],
					"presentation" : 1,
					"presentation_rect" : [ 389.0, 20.5, 55.0, 26.0 ],
					"style" : ""
				}

			}
, 			{
				"box" : 				{
					"id" : "obj-36",
					"maxclass" : "message",
					"numinlets" : 2,
					"numoutlets" : 1,
					"outlettype" : [ "" ],
					"patching_rect" : [ 869.0, 585.0, 69.0, 22.0 ],
					"style" : "",
					"text" : "fontsize $1"
				}

			}
, 			{
				"box" : 				{
					"id" : "obj-33",
					"maxclass" : "comment",
					"numinlets" : 1,
					"numoutlets" : 0,
					"patching_rect" : [ 1049.0, 651.0, 150.0, 20.0 ],
					"presentation" : 1,
					"presentation_rect" : [ 241.5, 53.0, 31.0, 20.0 ],
					"style" : "",
					"text" : "font"
				}

			}
, 			{
				"box" : 				{
					"fontname" : "Arial",
					"fontsize" : 13.0,
					"id" : "obj-29",
					"maxclass" : "newobj",
					"numinlets" : 1,
					"numoutlets" : 1,
					"outlettype" : [ "" ],
					"patching_rect" : [ 708.0, 497.0, 48.0, 23.0 ],
					"style" : "",
					"text" : "fontlist"
				}

			}
, 			{
				"box" : 				{
					"fontname" : "Arial",
					"fontsize" : 13.0,
					"id" : "obj-97",
					"maxclass" : "newobj",
					"numinlets" : 1,
					"numoutlets" : 1,
					"outlettype" : [ "" ],
					"patching_rect" : [ 708.0, 556.0, 74.0, 23.0 ],
					"style" : "",
					"text" : "tosymbol"
				}

			}
, 			{
				"box" : 				{
					"fontname" : "Arial",
					"fontsize" : 13.0,
					"id" : "obj-30",
					"maxclass" : "newobj",
					"numinlets" : 1,
					"numoutlets" : 1,
					"outlettype" : [ "" ],
					"patching_rect" : [ 708.0, 584.0, 85.0, 23.0 ],
					"style" : "",
					"text" : "prepend font"
				}

			}
, 			{
				"box" : 				{
					"fontsize" : 16.0,
					"id" : "obj-31",
					"items" : [ "Apple Braille Outline 6 Dot", ",", "Apple Braille Outline 8 Dot", ",", "Apple Braille Pinpoint 6 Dot", ",", "Apple Braille Pinpoint 8 Dot", ",", "Apple Braille", ",", "Apple Symbols", ",", "Apple SD Gothic Neo Regular", ",", ".Apple SD Gothic NeoI Regular", ",", "Apple SD Gothic Neo Medium", ",", ".Apple SD Gothic NeoI Medium", ",", "Apple SD Gothic Neo SemiBold", ",", ".Apple SD Gothic NeoI SemiBold", ",", "Apple SD Gothic Neo Bold", ",", ".Apple SD Gothic NeoI Bold", ",", "Apple SD Gothic Neo Light", ",", ".Apple SD Gothic NeoI Light", ",", "Apple SD Gothic Neo Thin", ",", ".Apple SD Gothic NeoI Thin", ",", "Apple SD Gothic Neo UltraLight", ",", ".Apple SD Gothic NeoI UltraLight", ",", "Apple SD GothicNeo ExtraBold", ",", "Apple SD GothicNeo ExtraBold", ",", "Apple SD Gothic Neo Heavy", ",", ".Apple SD Gothic NeoI Heavy", ",", ".Aqua Kana", ",", "Arial Hebrew", ",", "Arial Hebrew Light", ",", ".Arial Hebrew Desk Interface", ",", ".Arial Hebrew Desk Interface Light", ",", "Arial Hebrew Scholar", ",", "Arial Hebrew Scholar Light", ",", "Avenir Next Condensed Bold", ",", "Avenir Next Condensed Demi Bold", ",", "Avenir Next Condensed Italic", ",", "Avenir Next Condensed Medium", ",", "Avenir Next Condensed Regular", ",", "Avenir Next Condensed Heavy", ",", "Avenir Next Condensed Ultra Light", ",", "Avenir Next Bold", ",", "Avenir Next Demi Bold", ",", "Avenir Next Italic", ",", "Avenir Next Medium", ",", "Avenir Next Regular", ",", "Avenir Next Heavy", ",", "Avenir Next Ultra Light", ",", "Avenir Book", ",", "Avenir Book Oblique", ",", "Avenir Black", ",", "Avenir Black Oblique", ",", "Avenir Heavy", ",", "Avenir Heavy Oblique", ",", "Avenir Light", ",", "Avenir Light Oblique", ",", "Avenir Medium", ",", "Avenir Medium Oblique", ",", "Avenir Oblique", ",", "Avenir Roman", ",", "Courier", ",", "Courier Oblique", ",", "Geeza Pro Regular", ",", "Geeza Pro Bold", ",", ".Geeza Pro Interface Regular", ",", ".Geeza Pro Interface Bold", ",", ".Geeza Pro Interface Light", ",", ".Geeza Pro PUA", ",", "Geneva", ",", "Helvetica", ",", "Helvetica Oblique", ",", "Helvetica Light", ",", "Helvetica Light Oblique", ",", "Helvetica Neue", ",", "Helvetica Neue Condensed Bold", ",", "Helvetica Neue UltraLight", ",", "Helvetica Neue Light", ",", "Helvetica Neue Condensed Black", ",", "Helvetica Neue Medium", ",", "Helvetica Neue Thin", ",", ".Helvetica Neue DeskInterface Regular", ",", ".Helvetica Neue DeskInterface Bold", ",", ".Helvetica Neue DeskInterface Italic", ",", ".Helvetica Neue DeskInterface Medium P4", ",", ".Helvetica Neue DeskInterface Medium Italic P4", ",", ".Helvetica Neue DeskInterface Light", ",", ".Helvetica Neue DeskInterface Thin", ",", ".Helvetica Neue DeskInterface UltraLight", ",", ".Helvetica Neue DeskInterface Heavy", ",", "Hiragino Sans GB W3", ",", ".Hiragino Sans GB Interface W3", ",", "Hiragino Sans GB W6", ",", ".Hiragino Sans GB Interface W6", ",", ".Keyboard", ",", "Kohinoor Devanagari Regular", ",", "Kohinoor Devanagari Medium", ",", "Kohinoor Devanagari Semibold", ",", "Kohinoor Devanagari Bold", ",", "Kohinoor Devanagari Light", ",", "Kohinoor Bangla", ",", "Kohinoor Bangla Semibold", ",", "Kohinoor Bangla Medium", ",", "Kohinoor Bangla Light", ",", "Kohinoor Telugu", ",", "Kohinoor Telugu Semibold", ",", "Kohinoor Telugu Medium", ",", "Kohinoor Telugu Light", ",", ".LastResort", ",", "Lucida Grande", ",", ".Lucida Grande UI Regular", ",", ".Lucida Grande UI Bold", ",", "Marker Felt Thin", ",", "Marker Felt Wide", ",", "Menlo Regular", ",", "Menlo Bold", ",", "Menlo Italic", ",", "Monaco", ",", "Noteworthy Light", ",", "Noteworthy Bold", ",", "Optima Regular", ",", "Optima Bold", ",", "Optima Italic", ",", "Optima ExtraBlack", ",", "Palatino", ",", "PingFang HK Regular", ",", "PingFang TC Regular", ",", "PingFang SC Regular", ",", "PingFang HK Medium", ",", "PingFang TC Medium", ",", "PingFang SC Medium", ",", "PingFang HK Semibold", ",", "PingFang TC Semibold", ",", "PingFang SC Semibold", ",", "PingFang HK Light", ",", "PingFang TC Light", ",", "PingFang SC Light", ",", "PingFang HK Thin", ",", "PingFang TC Thin", ",", "PingFang SC Thin", ",", "PingFang HK Ultralight", ",", "PingFang TC Ultralight", ",", "PingFang SC Ultralight", ",", ".PingFang HK Regular", ",", ".PingFang TC Regular", ",", ".PingFang SC Regular", ",", ".PingFang HK Medium", ",", ".PingFang TC Medium", ",", ".PingFang SC Medium", ",", ".PingFang HK Semibold", ",", ".PingFang TC Semibold", ",", ".PingFang SC Semibold", ",", ".PingFang HK Light", ",", ".PingFang TC Light", ",", ".PingFang SC Light", ",", ".PingFang HK Thin", ",", ".PingFang TC Thin", ",", ".PingFang SC Thin", ",", ".PingFang HK Ultralight", ",", ".PingFang TC Ultralight", ",", ".PingFang SC Ultralight", ",", ".SF Compact Display Black", ",", ".SF Compact Display Bold", ",", ".SF Compact Display Heavy", ",", ".SF Compact Display Light", ",", ".SF Compact Display Medium", ",", ".SF Compact Display Regular", ",", ".SF Compact Display Semibold", ",", ".SF Compact Display Thin", ",", ".SF Compact Display Ultralight", ",", ".SF Compact Rounded Black", ",", ".SF Compact Rounded Bold", ",", ".SF Compact Rounded Heavy", ",", ".SF Compact Rounded Light", ",", ".SF Compact Rounded Medium", ",", ".SF Compact Rounded Regular", ",", ".SF Compact Rounded Semibold", ",", ".SF Compact Rounded Thin", ",", ".SF Compact Rounded Ultralight", ",", ".SF Compact Text Bold", ",", ".SF Compact Text Heavy", ",", ".SF Compact Text Light", ",", ".SF Compact Text Medium", ",", ".SF Compact Text Regular", ",", ".SF Compact Text Italic", ",", ".SF Compact Text Semibold", ",", "System Font", ",", ".SF NS Display Condensed Black", ",", ".SF NS Display Condensed Bold", ",", ".SF NS Display Condensed Heavy", ",", ".SF NS Display Condensed Light", ",", ".SF NS Display Condensed Medium", ",", ".SF NS Display Condensed Regular", ",", ".SF NS Display Condensed Semibold", ",", ".SF NS Display Condensed Thin", ",", ".SF NS Display Condensed Ultralight", ",", "System Font", ",", ".SF NS Text Condensed Bold", ",", ".SF NS Text Condensed Heavy", ",", ".SF NS Text Condensed Light", ",", ".SF NS Text Condensed Medium", ",", ".SF NS Text Condensed Regular", ",", ".SF NS Text Condensed Semibold", ",", "Heiti TC Light", ",", "Heiti SC Light", ",", "Heiti TC Medium", ",", "Heiti SC Medium", ",", "Thonburi", ",", "Thonburi Light", ",", "Times Roman", ",", "Times Bold", ",", "Times Italic", ",", "Zapf Dingbats", ",", "Hiragino Mincho ProN W3", ",", "Hiragino Mincho Pro W3", ",", "Hiragino Mincho ProN W6", ",", "Hiragino Mincho Pro W6", ",", "Hiragino Sans W0", ",", ".Hiragino Kaku Gothic Interface W0", ",", "Hiragino Sans W1", ",", ".Hiragino Kaku Gothic Interface W1", ",", "Hiragino Sans W2", ",", ".Hiragino Kaku Gothic Interface W2", ",", "Hiragino Sans W3", ",", ".Hiragino Kaku Gothic Interface W3", ",", "Hiragino Kaku Gothic ProN W3", ",", "Hiragino Kaku Gothic Pro W3", ",", "Hiragino Sans W4", ",", ".Hiragino Kaku Gothic Interface W4", ",", "Hiragino Sans W5", ",", ".Hiragino Kaku Gothic Interface W5", ",", "Hiragino Sans W6", ",", ".Hiragino Kaku Gothic Interface W6", ",", "Hiragino Kaku Gothic ProN W6", ",", "Hiragino Kaku Gothic Pro W6", ",", "Hiragino Sans W7", ",", ".Hiragino Kaku Gothic Interface W7", ",", "Hiragino Sans W8", ",", ".Hiragino Kaku Gothic Interface W8", ",", "Hiragino Kaku Gothic Std W8", ",", "Hiragino Kaku Gothic StdN W8", ",", "Hiragino Sans W9", ",", ".Hiragino Kaku Gothic Interface W9", ",", "Al Nile", ",", ".Al Nile PUA", ",", "Al Tarikh Regular", ",", ".Al Tarikh PUA", ",", "Al Bayan Plain", ",", ".Al Bayan PUA Plain", ",", "American Typewriter", ",", "American Typewriter Light", ",", "American Typewriter Semibold", ",", "American Typewriter Condensed", ",", "American Typewriter Condensed Light", ",", "Andale Mono", ",", "Apple Chancery", ",", "AppleGothic Regular", ",", "AppleMyungjo Regular", ",", "Arial Black", ",", "Arial Narrow", ",", "Arial Rounded MT Bold", ",", "Arial Unicode MS", ",", "Arial", ",", "Athelas Regular", ",", "Athelas Italic", ",", "Athelas Bold", ",", "Ayuthaya", ",", "Baghdad Regular", ",", ".Baghdad PUA", ",", "Bangla MN", ",", "Bangla Sangam MN", ",", "Baskerville", ",", "Baskerville SemiBold", ",", "Beirut Regular", ",", ".Beirut PUA", ",", "Big Caslon Medium", ",", "Bodoni 72 Oldstyle Book", ",", "Bodoni 72 Oldstyle Bold", ",", "Bodoni 72 Smallcaps Book", ",", "Bodoni 72 Book", ",", "Bodoni 72 Bold", ",", "Bodoni Ornaments", ",", "Bradley Hand Bold", ",", "Brush Script MT Italic", ",", "Chalkboard", ",", "Chalkboard SE Light", ",", "Chalkboard SE Regular", ",", "Chalkboard SE Bold", ",", "Chalkduster", ",", "Charter Roman", ",", "Charter Italic", ",", "Charter Bold", ",", "Charter Black", ",", "Cochin", ",", "Comic Sans MS", ",", "Copperplate", ",", "Copperplate Light", ",", "Corsiva Hebrew", ",", "Courier New", ",", "Damascus Regular", ",", ".Damascus PUA", ",", "Damascus Light", ",", ".Damascus PUA Light", ",", "Damascus Medium", ",", ".Damascus PUA Medium", ",", "Damascus Bold", ",", "Damascus Semi Bold", ",", ".Damascus PUA Semi Bold", ",", "DecoType Naskh Regular", ",", ".DecoType Naskh PUA", ",", "Devanagari Sangam MN", ",", "Devanagari MT", ",", "Didot", ",", "DIN Alternate Bold", ",", "DIN Condensed Bold", ",", "Diwan Kufi Regular", ",", ".Diwan Kufi PUA", ",", "Diwan Thuluth Regular", ",", "Euphemia UCAS", ",", "Farah Regular", ",", ".Farah PUA", ",", "Farisi Regular", ",", "Futura Medium", ",", "Futura Bold", ",", "Futura Condensed Medium", ",", "Futura Condensed ExtraBold", ",", "Georgia", ",", "Gill Sans", ",", "Gill Sans SemiBold", ",", "Gill Sans UltraBold", ",", "Gill Sans Light", ",", "Gujarati Sangam MN", ",", "Gujarati MT", ",", "Gurmukhi MN", ",", "Gurmukhi Sangam MN", ",", "Gurmukhi MT", ",", "Herculanum", ",", "Hoefler Text Ornaments", ",", "Hoefler Text", ",", "Hoefler Text Black", ",", "Impact", ",", "InaiMathi", ",", "Iowan Old Style Roman", ",", "Iowan Old Style Bold", ",", "Iowan Old Style Italic", ",", "Iowan Old Style Black", ",", "Iowan Old Style Titling", ",", "ITF Devanagari Book", ",", "ITF Devanagari Bold", ",", "ITF Devanagari Demi", ",", "ITF Devanagari Light", ",", "ITF Devanagari Medium", ",", "ITF Devanagari Marathi Book", ",", "ITF Devanagari Marathi Bold", ",", "ITF Devanagari Marathi Demi", ",", "ITF Devanagari Marathi Light", ",", "ITF Devanagari Marathi Medium", ",", "Kailasa Regular", ",", "Kailasa Bold", ",", "Kannada MN", ",", "Kannada Sangam MN", ",", "Kefa Regular", ",", "Kefa Bold", ",", "Khmer MN", ",", "Khmer Sangam MN", ",", "Kokonor Regular", ",", "Krungthep", ",", "KufiStandardGK Regular", ",", ".KufiStandardGK PUA", ",", "Lao MN", ",", "Lao Sangam MN", ",", "LatinModernMath-Regular", ",", "Latin Modern Mono 10 Italic", ",", "Latin Modern Mono 10 Regular", ",", "Latin Modern Mono 12 Regular", ",", "Latin Modern Mono 8 Regular", ",", "Latin Modern Mono 9 Regular", ",", "Latin Modern Mono Caps 10 Oblique", ",", "Latin Modern Mono Caps 10 Regular", ",", "Latin Modern Mono Light 10 Bold", ",", "Latin Modern Mono Light 10 Bold Oblique", ",", "Latin Modern Mono Light 10 Oblique", ",", "Latin Modern Mono Light 10 Regular", ",", "Latin Modern Mono Light Cond 10 Oblique", ",", "Latin Modern Mono Light Cond 10 Regular", ",", "Latin Modern Mono Prop 10 Oblique", ",", "Latin Modern Mono Prop 10 Regular", ",", "Latin Modern Mono Prop Light 10 Bold", ",", "Latin Modern Mono Prop Light 10 BoldOblique", ",", "Latin Modern Mono Prop Light 10 Oblique", ",", "Latin Modern Mono Prop Light 10 Regular", ",", "Latin Modern Mono Slanted 10 Regular", ",", "Latin Modern Roman 10 Bold", ",", "Latin Modern Roman 10 Italic", ",", "Latin Modern Roman 10 Regular", ",", "Latin Modern Roman 12 Bold", ",", "Latin Modern Roman 12 Italic", ",", "Latin Modern Roman 12 Regular", ",", "Latin Modern Roman 17 Regular", ",", "Latin Modern Roman 5 Bold", ",", "Latin Modern Roman 5 Regular", ",", "Latin Modern Roman 6 Bold", ",", "Latin Modern Roman 6 Regular", ",", "Latin Modern Roman 7 Bold", ",", "Latin Modern Roman 7 Italic", ",", "Latin Modern Roman 7 Regular", ",", "Latin Modern Roman 8 Bold", ",", "Latin Modern Roman 8 Italic", ",", "Latin Modern Roman 8 Regular", ",", "Latin Modern Roman 9 Bold", ",", "Latin Modern Roman 9 Italic", ",", "Latin Modern Roman 9 Regular", ",", "Latin Modern Roman Caps 10 Oblique", ",", "Latin Modern Roman Caps 10 Regular", ",", "Latin Modern Roman Demi 10 Oblique", ",", "Latin Modern Roman Demi 10 Regular", ",", "Latin Modern Roman Dunhill 10 Oblique", ",", "Latin Modern Roman Dunhill 10 Regular", ",", "Latin Modern Roman Slanted 10 Bold", ",", "Latin Modern Roman Slanted 10 Regular", ",", "Latin Modern Roman Slanted 12 Regular", ",", "Latin Modern Roman Slanted 17 Regular", ",", "Latin Modern Roman Slanted 8 Regular", ",", "Latin Modern Roman Slanted 9 Regular", ",", "Latin Modern Roman Unslanted 10 Regular", ",", "Latin Modern Sans 10 Bold", ",", "Latin Modern Sans 10 Bold Oblique", ",", "Latin Modern Sans 10 Oblique", ",", "Latin Modern Sans 10 Regular", ",", "Latin Modern Sans 12 Oblique", ",", "Latin Modern Sans 12 Regular", ",", "Latin Modern Sans 17 Oblique", ",", "Latin Modern Sans 17 Regular", ",", "Latin Modern Sans 8 Oblique", ",", "Latin Modern Sans 8 Regular", ",", "Latin Modern Sans 9 Oblique", ",", "Latin Modern Sans 9 Regular", ",", "Latin Modern Sans Demi Cond 10 Oblique", ",", "Latin Modern Sans Demi Cond 10 Regular", ",", "Latin Modern Sans Quotation 8 Bold", ",", "Latin Modern Sans Quotation 8 Bold Oblique", ",", "Latin Modern Sans Quotation 8 Oblique", ",", "Latin Modern Sans Quotation 8 Regular", ",", "Luminari", ",", "Malayalam MN", ",", "Malayalam Sangam MN", ",", "Marion Regular", ",", "Marion Italic", ",", "Marion Bold", ",", "Microsoft Sans Serif", ",", "Mishafi Gold Regular", ",", "Mishafi Regular", ",", "Mshtakan", ",", "Mshtakan Oblique", ",", "Muna Regular", ",", ".Muna PUA", ",", "Muna Bold", ",", "Muna Black", ",", ".Muna PUA Black", ",", "Myanmar MN", ",", "Myanmar Sangam MN", ",", "Nadeem Regular", ",", ".Nadeem PUA", ",", "New Peninim MT", ",", "New Peninim MT Inclined", ",", "New Peninim MT Bold Inclined", ",", "GB18030 Bitmap", ",", "Oriya MN", ",", "Oriya Sangam MN", ",", "Papyrus Condensed", ",", "Papyrus", ",", "Phosphate Inline", ",", "Phosphate Solid", ",", "Plantagenet Cherokee", ",", "PT Mono", ",", "PT Sans", ",", "PT Sans Narrow", ",", "PT Sans Caption", ",", "PT Serif", ",", "PT Serif Caption", ",", "Raanana", ",", "Sana Regular", ",", ".Sana PUA", ",", "Sathu", ",", "Savoye LET Plain:1.0", ",", "Savoye LET Plain CC.:1.0", ",", "Seravek", ",", "Seravek Medium", ",", "Seravek Light", ",", "Seravek ExtraLight", ",", "Shree Devanagari 714", ",", "SignPainter-HouseScript", ",", "SignPainter-HouseScript Semibold", ",", "Silom", ",", "Sinhala MN", ",", "Sinhala Sangam MN", ",", "Skia", ",", "Snell Roundhand", ",", "Snell Roundhand Black", ",", "Songti SC Black", ",", "Songti SC Bold", ",", "Songti TC Bold", ",", "Songti SC Light", ",", "STSong", ",", "Songti TC Light", ",", "Songti SC Regular", ",", "Songti TC Regular", ",", "STIXGeneral-Regular", ",", "STIXGeneral-Bold", ",", "STIXGeneral-BoldItalic", ",", "STIXGeneral-Italic", ",", "STIXIntegralsD-Bold", ",", "STIXIntegralsD-Regular", ",", "STIXIntegralsSm-Bold", ",", "STIXIntegralsSm-Regular", ",", "STIXIntegralsUp-Bold", ",", "STIXIntegralsUpD-Bold", ",", "STIXIntegralsUpD-Regular", ",", "STIXIntegralsUp-Regular", ",", "STIXIntegralsUpSm-Bold", ",", "STIXIntegralsUpSm-Regular", ",", "STIXNonUnicode-Regular", ",", "STIXNonUnicode-Bold", ",", "STIXNonUnicode-BoldItalic", ",", "STIXNonUnicode-Italic", ",", "STIXSizeFiveSym-Regular", ",", "STIXSizeFourSym-Bold", ",", "STIXSizeFourSym-Regular", ",", "STIXSizeOneSym-Bold", ",", "STIXSizeOneSym-Regular", ",", "STIXSizeThreeSym-Bold", ",", "STIXSizeThreeSym-Regular", ",", "STIXSizeTwoSym-Bold", ",", "STIXSizeTwoSym-Regular", ",", "STIXVariants-Regular", ",", "STIXVariants-Bold", ",", "Sukhumvit Set Thin", ",", "Sukhumvit Set Light", ",", "Sukhumvit Set Text", ",", "Sukhumvit Set Medium", ",", "Sukhumvit Set Semi Bold", ",", "Sukhumvit Set Bold", ",", "Superclarendon Regular", ",", "Superclarendon Italic", ",", "Superclarendon Light", ",", "Superclarendon Bold", ",", "Superclarendon Black", ",", "Tahoma", ",", "Tamil MN", ",", "Tamil Sangam MN", ",", "Telugu MN", ",", "Telugu Sangam MN", ",", "TeX Gyre Adventor", ",", "TeX Gyre Bonum", ",", "TeX Gyre Chorus", ",", "TeX Gyre Cursor", ",", "TeX Gyre Heros", ",", "TeX Gyre Heros Cn", ",", "TeXGyrePagellaMath-Regular", ",", "TeX Gyre Pagella", ",", "TeX Gyre Schola", ",", "TeXGyreTermesMath-Regular", ",", "TeX Gyre Termes", ",", "Times New Roman", ",", "Trattatello", ",", "Trebuchet MS", ",", "Verdana", ",", "Waseem Regular", ",", "Waseem Light", ",", "Webdings", ",", "Wingdings 2", ",", "Wingdings 3", ",", "Wingdings", ",", "Zapfino", ",", "Hiragino Maru Gothic Pro W4", ",", "Hiragino Maru Gothic ProN W4", ",", "CMU Bright Bold Extended", ",", "CMU Serif Bold Extended Italic", ",", "CMU Serif Bold Extended Slanted Roman", ",", "CMU Bright Oblique", ",", "CMU Bright Roman", ",", "CMU Bright SemiBold Oblique", ",", "CMU Bright SemiBold", ",", "CMU Typewriter Text Light", ",", "CMU Typewriter Text Light Oblique", ",", "CMU Serif Bold Extended Roman", ",", "CMU Bright Bold Extended Oblique", ",", "CMU Classical Serif Italic", ",", "CMU Typewriter Text Italic", ",", "CMU Concrete Bold Extended Italic", ",", "CMU Concrete Bold Extended Roman", ",", "CMU Concrete Roman", ",", "CMU Concrete Italic", ",", "CMU Serif Roman Bold Nonextended", ",", "CMU Serif Roman", ",", "CMU Sans Serif Oblique", ",", "CMU Serif Roman Slanted", ",", "CMU Sans Serif Bold Extended Oblique", ",", "CMU Sans Serif", ",", "CMU Sans Serif Demi Condensed", ",", "CMU Typewriter Text Oblique", ",", "CMU Sans Serif Bold Extended", ",", "CMU Typewriter Text Bold", ",", "CMU Serif Italic", ",", "CMU Typewriter Text Regular", ",", "CMU Serif Upright Italic", ",", "CMU Typewriter Text Variable Width", ",", "Latin Modern Mono 10 Italic", ",", "Latin Modern Mono 10 Regular", ",", "Latin Modern Mono 12 Regular", ",", "Latin Modern Mono 8 Regular", ",", "Latin Modern Mono 9 Regular", ",", "Latin Modern Mono Caps 10 Oblique", ",", "Latin Modern Mono Caps 10 Regular", ",", "Latin Modern Mono Light 10 Bold", ",", "Latin Modern Mono Light 10 Bold Oblique", ",", "Latin Modern Mono Light 10 Oblique", ",", "Latin Modern Mono Light 10 Regular", ",", "Latin Modern Mono Light Cond 10 Oblique", ",", "Latin Modern Mono Light Cond 10 Regular", ",", "Latin Modern Mono Prop 10 Oblique", ",", "Latin Modern Mono Prop 10 Regular", ",", "Latin Modern Mono Prop Light 10 Bold", ",", "Latin Modern Mono Prop Light 10 BoldOblique", ",", "Latin Modern Mono Prop Light 10 Oblique", ",", "Latin Modern Mono Prop Light 10 Regular", ",", "Latin Modern Mono Slanted 10 Regular", ",", "Latin Modern Roman 10 Bold", ",", "Latin Modern Roman 10 Italic", ",", "Latin Modern Roman 10 Regular", ",", "Latin Modern Roman 12 Bold", ",", "Latin Modern Roman 12 Italic", ",", "Latin Modern Roman 12 Regular", ",", "Latin Modern Roman 17 Regular", ",", "Latin Modern Roman 5 Bold", ",", "Latin Modern Roman 5 Regular", ",", "Latin Modern Roman 6 Bold", ",", "Latin Modern Roman 6 Regular", ",", "Latin Modern Roman 7 Bold", ",", "Latin Modern Roman 7 Italic", ",", "Latin Modern Roman 7 Regular", ",", "Latin Modern Roman 8 Bold", ",", "Latin Modern Roman 8 Italic", ",", "Latin Modern Roman 8 Regular", ",", "Latin Modern Roman 9 Bold", ",", "Latin Modern Roman 9 Italic", ",", "Latin Modern Roman 9 Regular", ",", "Latin Modern Roman Caps 10 Oblique", ",", "Latin Modern Roman Caps 10 Regular", ",", "Latin Modern Roman Demi 10 Oblique", ",", "Latin Modern Roman Demi 10 Regular", ",", "Latin Modern Roman Dunhill 10 Oblique", ",", "Latin Modern Roman Dunhill 10 Regular", ",", "Latin Modern Roman Slanted 10 Bold", ",", "Latin Modern Roman Slanted 10 Regular", ",", "Latin Modern Roman Slanted 12 Regular", ",", "Latin Modern Roman Slanted 17 Regular", ",", "Latin Modern Roman Slanted 8 Regular", ",", "Latin Modern Roman Slanted 9 Regular", ",", "Latin Modern Roman Unslanted 10 Regular", ",", "Latin Modern Sans 10 Bold", ",", "Latin Modern Sans 10 Bold Oblique", ",", "Latin Modern Sans 10 Oblique", ",", "Latin Modern Sans 10 Regular", ",", "Latin Modern Sans 12 Oblique", ",", "Latin Modern Sans 12 Regular", ",", "Latin Modern Sans 17 Oblique", ",", "Latin Modern Sans 17 Regular", ",", "Latin Modern Sans 8 Oblique", ",", "Latin Modern Sans 8 Regular", ",", "Latin Modern Sans 9 Oblique", ",", "Latin Modern Sans 9 Regular", ",", "Latin Modern Sans Demi Cond 10 Oblique", ",", "Latin Modern Sans Demi Cond 10 Regular", ",", "Latin Modern Sans Quotation 8 Bold", ",", "Latin Modern Sans Quotation 8 Bold Oblique", ",", "Latin Modern Sans Quotation 8 Oblique", ",", "Latin Modern Sans Quotation 8 Regular", ",", "TeamViewer12", ",", "Apple Color Emoji", ",", ".Apple Color Emoji UI", ",", "Symbol", ",", "Fira Code Light", ",", "Fira Code Medium", ",", "Fira Code", ",", "Fira Code Retina", ",", "Anonymous Pro", ",", "PT Mono", ",", "Fira Code Light", ",", "Fira Code Medium", ",", "Fira Code Regular", ",", "Fira Code Retina" ],
					"maxclass" : "umenu",
					"numinlets" : 1,
					"numoutlets" : 3,
					"outlettype" : [ "int", "", "" ],
					"parameter_enable" : 0,
					"patching_rect" : [ 708.0, 528.0, 139.0, 26.0 ],
					"presentation" : 1,
					"presentation_rect" : [ 144.0, 20.5, 226.0, 26.0 ],
					"style" : ""
				}

			}
, 			{
				"box" : 				{
					"comment" : "",
					"id" : "obj-27",
					"index" : 0,
					"maxclass" : "outlet",
					"numinlets" : 1,
					"numoutlets" : 0,
					"patching_rect" : [ 25.0, 515.0, 30.0, 30.0 ],
					"style" : ""
				}

			}
, 			{
				"box" : 				{
					"id" : "obj-26",
					"maxclass" : "newobj",
					"numinlets" : 1,
					"numoutlets" : 1,
					"outlettype" : [ "" ],
					"patching_rect" : [ 81.0, 164.0, 72.0, 22.0 ],
					"style" : "",
					"text" : "loadmess 6"
				}

			}
, 			{
				"box" : 				{
					"id" : "obj-12",
					"maxclass" : "newobj",
					"numinlets" : 3,
					"numoutlets" : 1,
					"outlettype" : [ "" ],
					"patching_rect" : [ 81.0, 253.0, 55.0, 22.0 ],
					"style" : "",
					"text" : "clip 2 10"
				}

			}
, 			{
				"box" : 				{
					"id" : "obj-11",
					"maxclass" : "newobj",
					"numinlets" : 6,
					"numoutlets" : 1,
					"outlettype" : [ "" ],
					"patching_rect" : [ 81.0, 227.0, 85.0, 22.0 ],
					"style" : "",
					"text" : "scale 1 9 10 2"
				}

			}
, 			{
				"box" : 				{
					"id" : "obj-8",
					"maxclass" : "comment",
					"numinlets" : 1,
					"numoutlets" : 0,
					"patching_rect" : [ 1049.0, 651.0, 150.0, 20.0 ],
					"presentation" : 1,
					"presentation_rect" : [ 52.0, 53.0, 91.0, 20.0 ],
					"style" : "",
					"text" : "scrolling speed"
				}

			}
, 			{
				"box" : 				{
					"id" : "obj-4",
					"maxclass" : "comment",
					"numinlets" : 1,
					"numoutlets" : 0,
					"patching_rect" : [ 1049.0, 651.0, 150.0, 20.0 ],
					"presentation" : 1,
					"presentation_rect" : [ 11.0, 53.0, 39.0, 20.0 ],
					"style" : "",
					"text" : "scroll"
				}

			}
, 			{
				"box" : 				{
					"id" : "obj-16",
					"maxclass" : "message",
					"numinlets" : 2,
					"numoutlets" : 1,
					"outlettype" : [ "" ],
					"patching_rect" : [ 623.0, 94.0, 37.0, 22.0 ],
					"style" : "",
					"text" : "clear"
				}

			}
, 			{
				"box" : 				{
					"id" : "obj-14",
					"maxclass" : "newobj",
					"numinlets" : 2,
					"numoutlets" : 2,
					"outlettype" : [ "bang", "" ],
					"patching_rect" : [ 175.0, 440.0, 36.0, 22.0 ],
					"style" : "",
					"text" : "sel 1"
				}

			}
, 			{
				"box" : 				{
					"id" : "obj-2",
					"maxclass" : "newobj",
					"numinlets" : 2,
					"numoutlets" : 1,
					"outlettype" : [ "int" ],
					"patching_rect" : [ 175.0, 412.0, 51.0, 22.0 ],
					"style" : "",
					"text" : ">= 0.99"
				}

			}
, 			{
				"box" : 				{
					"id" : "obj-1",
					"maxclass" : "newobj",
					"numinlets" : 2,
					"numoutlets" : 1,
					"outlettype" : [ "int" ],
					"patching_rect" : [ 175.0, 383.0, 35.0, 22.0 ],
					"style" : "",
					"text" : "% 1."
				}

			}
, 			{
				"box" : 				{
					"id" : "obj-237",
					"maxclass" : "newobj",
					"numinlets" : 2,
					"numoutlets" : 1,
					"outlettype" : [ "float" ],
					"patching_rect" : [ 49.0, 342.0, 47.0, 22.0 ],
					"style" : "",
					"text" : "/ 1000."
				}

			}
, 			{
				"box" : 				{
					"id" : "obj-224",
					"maxclass" : "newobj",
					"numinlets" : 2,
					"numoutlets" : 2,
					"outlettype" : [ "jit_gl_texture", "" ],
					"patching_rect" : [ 25.0, 482.0, 335.0, 22.0 ],
					"style" : "",
					"text" : "jit.gl.slab @file os.normalized-rota.jxs @param boundmode 2"
				}

			}
, 			{
				"box" : 				{
					"fontsize" : 16.0,
					"id" : "obj-190",
					"maxclass" : "number",
					"maximum" : 9,
					"minimum" : 1,
					"numinlets" : 1,
					"numoutlets" : 2,
					"outlettype" : [ "", "bang" ],
					"parameter_enable" : 0,
					"patching_rect" : [ 81.0, 192.0, 55.0, 26.0 ],
					"presentation" : 1,
					"presentation_rect" : [ 70.0, 20.5, 55.0, 26.0 ],
					"style" : ""
				}

			}
, 			{
				"box" : 				{
					"id" : "obj-188",
					"maxclass" : "toggle",
					"numinlets" : 1,
					"numoutlets" : 1,
					"outlettype" : [ "int" ],
					"parameter_enable" : 0,
					"patching_rect" : [ 49.0, 253.0, 24.0, 24.0 ],
					"presentation" : 1,
					"presentation_rect" : [ 11.0, 14.0, 39.0, 39.0 ],
					"style" : ""
				}

			}
, 			{
				"box" : 				{
					"id" : "obj-185",
					"maxclass" : "newobj",
					"numinlets" : 2,
					"numoutlets" : 1,
					"outlettype" : [ "bang" ],
					"patching_rect" : [ 49.0, 283.0, 51.0, 22.0 ],
					"style" : "",
					"text" : "metro 5"
				}

			}
, 			{
				"box" : 				{
					"id" : "obj-166",
					"maxclass" : "newobj",
					"numinlets" : 2,
					"numoutlets" : 1,
					"outlettype" : [ "float" ],
					"patching_rect" : [ 49.0, 383.0, 33.0, 22.0 ],
					"style" : "",
					"text" : "* -1."
				}

			}
, 			{
				"box" : 				{
					"id" : "obj-161",
					"maxclass" : "newobj",
					"numinlets" : 5,
					"numoutlets" : 4,
					"outlettype" : [ "int", "", "", "int" ],
					"patching_rect" : [ 49.0, 313.0, 61.0, 22.0 ],
					"style" : "",
					"text" : "counter"
				}

			}
, 			{
				"box" : 				{
					"id" : "obj-110",
					"maxclass" : "newobj",
					"numinlets" : 1,
					"numoutlets" : 1,
					"outlettype" : [ "bang" ],
					"patching_rect" : [ 548.0, 66.0, 60.0, 22.0 ],
					"style" : "",
					"text" : "loadbang"
				}

			}
, 			{
				"box" : 				{
					"id" : "obj-107",
					"maxclass" : "message",
					"numinlets" : 2,
					"numoutlets" : 1,
					"outlettype" : [ "" ],
					"patching_rect" : [ 548.0, 94.0, 69.0, 22.0 ],
					"style" : "",
					"text" : "keymode 1"
				}

			}
, 			{
				"box" : 				{
					"id" : "obj-102",
					"maxclass" : "newobj",
					"numinlets" : 1,
					"numoutlets" : 2,
					"outlettype" : [ "", "" ],
					"patching_rect" : [ 548.0, 412.0, 29.5, 22.0 ],
					"style" : "",
					"text" : "t l l"
				}

			}
, 			{
				"box" : 				{
					"id" : "obj-101",
					"maxclass" : "newobj",
					"numinlets" : 1,
					"numoutlets" : 1,
					"outlettype" : [ "bang" ],
					"patching_rect" : [ 597.0, 510.0, 24.0, 22.0 ],
					"style" : "",
					"text" : "t b"
				}

			}
, 			{
				"box" : 				{
					"id" : "obj-100",
					"maxclass" : "newobj",
					"numinlets" : 2,
					"numoutlets" : 2,
					"outlettype" : [ "", "" ],
					"patching_rect" : [ 597.0, 541.0, 40.0, 22.0 ],
					"style" : "",
					"text" : "zl reg"
				}

			}
, 			{
				"box" : 				{
					"id" : "obj-99",
					"maxclass" : "newobj",
					"numinlets" : 1,
					"numoutlets" : 1,
					"outlettype" : [ "" ],
					"patching_rect" : [ 548.0, 450.0, 73.0, 22.0 ],
					"style" : "",
					"text" : "fromsymbol"
				}

			}
, 			{
				"box" : 				{
					"id" : "obj-94",
					"maxclass" : "newobj",
					"numinlets" : 2,
					"numoutlets" : 2,
					"outlettype" : [ "", "" ],
					"patching_rect" : [ 548.0, 481.0, 68.0, 22.0 ],
					"style" : "",
					"text" : "route bang"
				}

			}
, 			{
				"box" : 				{
					"id" : "obj-86",
					"maxclass" : "message",
					"numinlets" : 2,
					"numoutlets" : 1,
					"outlettype" : [ "" ],
					"patching_rect" : [ 548.0, 230.0, 44.0, 22.0 ],
					"style" : "",
					"text" : "\\\\bang"
				}

			}
, 			{
				"box" : 				{
					"id" : "obj-46",
					"maxclass" : "newobj",
					"numinlets" : 2,
					"numoutlets" : 1,
					"outlettype" : [ "" ],
					"patching_rect" : [ 49.0, 412.0, 57.0, 22.0 ],
					"style" : "",
					"text" : "pak 0. 0."
				}

			}
, 			{
				"box" : 				{
					"id" : "obj-45",
					"maxclass" : "message",
					"numinlets" : 2,
					"numoutlets" : 1,
					"outlettype" : [ "" ],
					"patching_rect" : [ 49.0, 440.0, 110.0, 22.0 ],
					"style" : "",
					"text" : "param offset $1 $2"
				}

			}
, 			{
				"box" : 				{
					"id" : "obj-25",
					"maxclass" : "message",
					"numinlets" : 2,
					"numoutlets" : 1,
					"outlettype" : [ "" ],
					"patching_rect" : [ 548.0, 585.0, 30.0, 22.0 ],
					"style" : "",
					"text" : "text"
				}

			}
, 			{
				"box" : 				{
					"id" : "obj-23",
					"maxclass" : "newobj",
					"numinlets" : 2,
					"numoutlets" : 2,
					"outlettype" : [ "", "" ],
					"patching_rect" : [ 548.0, 197.0, 68.0, 22.0 ],
					"style" : "",
					"text" : "route bang"
				}

			}
, 			{
				"box" : 				{
					"id" : "obj-22",
					"maxclass" : "newobj",
					"numinlets" : 1,
					"numoutlets" : 2,
					"outlettype" : [ "jit_matrix", "" ],
					"patching_rect" : [ 548.0, 623.0, 509.0, 22.0 ],
					"style" : "",
					"text" : "jit.gl.text scrollbar @fontsize 30 @color 1 1 1 1 @position -0.975. -0.95 0. @transform_reset 2"
				}

			}
, 			{
				"box" : 				{
					"id" : "obj-17",
					"maxclass" : "newobj",
					"numinlets" : 2,
					"numoutlets" : 2,
					"outlettype" : [ "", "" ],
					"patching_rect" : [ 548.0, 166.0, 61.0, 22.0 ],
					"style" : "",
					"text" : "route text"
				}

			}
, 			{
				"box" : 				{
					"fontsize" : 20.0,
					"id" : "obj-9",
					"keymode" : 1,
					"maxclass" : "textedit",
					"numinlets" : 1,
					"numoutlets" : 4,
					"outlettype" : [ "", "int", "", "" ],
					"outputmode" : 1,
					"parameter_enable" : 0,
					"patching_rect" : [ 548.0, 126.0, 647.0, 29.0 ],
					"presentation" : 1,
					"presentation_rect" : [ 11.0, 77.0, 1197.0, 29.0 ],
					"style" : ""
				}

			}
, 			{
				"box" : 				{
					"id" : "obj-7",
					"maxclass" : "newobj",
					"numinlets" : 1,
					"numoutlets" : 3,
					"outlettype" : [ "jit_gl_texture", "", "" ],
					"patching_rect" : [ 25.0, 126.0, 379.0, 22.0 ],
					"style" : "",
					"text" : "jit.gl.node CoLab @name scrollbar @capture 1 @erase_color 0 0 0 1"
				}

			}
, 			{
				"box" : 				{
					"id" : "obj-5",
					"maxclass" : "newobj",
					"numinlets" : 1,
					"numoutlets" : 2,
					"outlettype" : [ "jit_matrix", "" ],
					"patching_rect" : [ 597.0, 585.0, 101.0, 22.0 ],
					"style" : "",
					"text" : "jit.str.fromsymbol"
				}

			}
 ],
		"lines" : [ 			{
				"patchline" : 				{
					"destination" : [ "obj-2", 0 ],
					"source" : [ "obj-1", 0 ]
				}

			}
, 			{
				"patchline" : 				{
					"destination" : [ "obj-5", 0 ],
					"midpoints" : [ 606.5, 566.0, 606.5, 566.0 ],
					"source" : [ "obj-100", 0 ]
				}

			}
, 			{
				"patchline" : 				{
					"destination" : [ "obj-100", 0 ],
					"source" : [ "obj-101", 0 ]
				}

			}
, 			{
				"patchline" : 				{
					"destination" : [ "obj-100", 1 ],
					"midpoints" : [ 568.0, 443.0, 627.5, 443.0 ],
					"source" : [ "obj-102", 1 ]
				}

			}
, 			{
				"patchline" : 				{
					"destination" : [ "obj-99", 0 ],
					"source" : [ "obj-102", 0 ]
				}

			}
, 			{
				"patchline" : 				{
					"destination" : [ "obj-64", 0 ],
					"midpoints" : [ 461.5, 452.0, 441.5, 452.0, 441.5, 294.0, 557.5, 294.0 ],
					"source" : [ "obj-104", 0 ]
				}

			}
, 			{
				"patchline" : 				{
					"destination" : [ "obj-9", 0 ],
					"source" : [ "obj-107", 0 ]
				}

			}
, 			{
				"patchline" : 				{
					"destination" : [ "obj-12", 0 ],
					"source" : [ "obj-11", 0 ]
				}

			}
, 			{
				"patchline" : 				{
					"destination" : [ "obj-107", 0 ],
					"order" : 3,
					"source" : [ "obj-110", 0 ]
				}

			}
, 			{
				"patchline" : 				{
					"destination" : [ "obj-116", 0 ],
					"midpoints" : [ 557.5, 90.0, 818.0, 90.0 ],
					"order" : 0,
					"source" : [ "obj-110", 0 ]
				}

			}
, 			{
				"patchline" : 				{
					"destination" : [ "obj-16", 0 ],
					"midpoints" : [ 557.5, 90.5, 632.5, 90.5 ],
					"order" : 2,
					"source" : [ "obj-110", 0 ]
				}

			}
, 			{
				"patchline" : 				{
					"destination" : [ "obj-29", 0 ],
					"midpoints" : [ 557.5, 90.0, 717.5, 90.0 ],
					"order" : 1,
					"source" : [ "obj-110", 0 ]
				}

			}
, 			{
				"patchline" : 				{
					"destination" : [ "obj-102", 0 ],
					"source" : [ "obj-112", 0 ]
				}

			}
, 			{
				"patchline" : 				{
					"destination" : [ "obj-25", 0 ],
					"midpoints" : [ 678.5, 572.5, 557.5, 572.5 ],
					"order" : 1,
					"source" : [ "obj-113", 0 ]
				}

			}
, 			{
				"patchline" : 				{
					"destination" : [ "obj-83", 0 ],
					"midpoints" : [ 678.5, 260.5, 632.5, 260.5 ],
					"order" : 0,
					"source" : [ "obj-113", 0 ]
				}

			}
, 			{
				"patchline" : 				{
					"destination" : [ "obj-61", 0 ],
					"source" : [ "obj-115", 0 ]
				}

			}
, 			{
				"patchline" : 				{
					"destination" : [ "obj-115", 0 ],
					"source" : [ "obj-116", 0 ]
				}

			}
, 			{
				"patchline" : 				{
					"destination" : [ "obj-69", 0 ],
					"midpoints" : [ 833.0, 196.0, 899.0, 196.0 ],
					"source" : [ "obj-116", 1 ]
				}

			}
, 			{
				"patchline" : 				{
					"destination" : [ "obj-185", 1 ],
					"source" : [ "obj-12", 0 ]
				}

			}
, 			{
				"patchline" : 				{
					"destination" : [ "obj-78", 0 ],
					"midpoints" : [ 184.5, 472.0, 371.0, 472.0, 371.0, 215.0, 461.5, 215.0 ],
					"source" : [ "obj-14", 0 ]
				}

			}
, 			{
				"patchline" : 				{
					"destination" : [ "obj-9", 0 ],
					"midpoints" : [ 632.5, 120.5, 557.5, 120.5 ],
					"source" : [ "obj-16", 0 ]
				}

			}
, 			{
				"patchline" : 				{
					"destination" : [ "obj-237", 0 ],
					"source" : [ "obj-161", 0 ]
				}

			}
, 			{
				"patchline" : 				{
					"destination" : [ "obj-46", 0 ],
					"source" : [ "obj-166", 0 ]
				}

			}
, 			{
				"patchline" : 				{
					"destination" : [ "obj-23", 0 ],
					"source" : [ "obj-17", 0 ]
				}

			}
, 			{
				"patchline" : 				{
					"destination" : [ "obj-161", 0 ],
					"source" : [ "obj-185", 0 ]
				}

			}
, 			{
				"patchline" : 				{
					"destination" : [ "obj-185", 0 ],
					"source" : [ "obj-188", 0 ]
				}

			}
, 			{
				"patchline" : 				{
					"destination" : [ "obj-11", 0 ],
					"source" : [ "obj-190", 0 ]
				}

			}
, 			{
				"patchline" : 				{
					"destination" : [ "obj-14", 0 ],
					"source" : [ "obj-2", 0 ]
				}

			}
, 			{
				"patchline" : 				{
					"destination" : [ "obj-27", 0 ],
					"source" : [ "obj-224", 0 ]
				}

			}
, 			{
				"patchline" : 				{
					"destination" : [ "obj-66", 0 ],
					"midpoints" : [ 606.5, 255.0, 557.5, 255.0 ],
					"source" : [ "obj-23", 1 ]
				}

			}
, 			{
				"patchline" : 				{
					"destination" : [ "obj-86", 0 ],
					"source" : [ "obj-23", 0 ]
				}

			}
, 			{
				"patchline" : 				{
					"destination" : [ "obj-1", 0 ],
					"midpoints" : [ 58.5, 373.0, 184.5, 373.0 ],
					"order" : 0,
					"source" : [ "obj-237", 0 ]
				}

			}
, 			{
				"patchline" : 				{
					"destination" : [ "obj-166", 0 ],
					"order" : 1,
					"source" : [ "obj-237", 0 ]
				}

			}
, 			{
				"patchline" : 				{
					"destination" : [ "obj-22", 0 ],
					"source" : [ "obj-25", 0 ]
				}

			}
, 			{
				"patchline" : 				{
					"destination" : [ "obj-190", 0 ],
					"source" : [ "obj-26", 0 ]
				}

			}
, 			{
				"patchline" : 				{
					"destination" : [ "obj-31", 0 ],
					"source" : [ "obj-29", 0 ]
				}

			}
, 			{
				"patchline" : 				{
					"destination" : [ "obj-22", 0 ],
					"midpoints" : [ 717.5, 614.5, 557.5, 614.5 ],
					"source" : [ "obj-30", 0 ]
				}

			}
, 			{
				"patchline" : 				{
					"destination" : [ "obj-97", 0 ],
					"midpoints" : [ 777.5, 550.0, 717.5, 550.0 ],
					"source" : [ "obj-31", 1 ]
				}

			}
, 			{
				"patchline" : 				{
					"destination" : [ "obj-22", 0 ],
					"midpoints" : [ 878.5, 615.0, 557.5, 615.0 ],
					"source" : [ "obj-36", 0 ]
				}

			}
, 			{
				"patchline" : 				{
					"destination" : [ "obj-36", 0 ],
					"source" : [ "obj-38", 0 ]
				}

			}
, 			{
				"patchline" : 				{
					"destination" : [ "obj-38", 0 ],
					"source" : [ "obj-39", 0 ]
				}

			}
, 			{
				"patchline" : 				{
					"destination" : [ "obj-224", 0 ],
					"midpoints" : [ 58.5, 471.5, 34.5, 471.5 ],
					"source" : [ "obj-45", 0 ]
				}

			}
, 			{
				"patchline" : 				{
					"destination" : [ "obj-45", 0 ],
					"source" : [ "obj-46", 0 ]
				}

			}
, 			{
				"patchline" : 				{
					"destination" : [ "obj-22", 0 ],
					"midpoints" : [ 606.5, 614.5, 557.5, 614.5 ],
					"source" : [ "obj-5", 0 ]
				}

			}
, 			{
				"patchline" : 				{
					"destination" : [ "obj-79", 1 ],
					"source" : [ "obj-64", 0 ]
				}

			}
, 			{
				"patchline" : 				{
					"destination" : [ "obj-64", 0 ],
					"source" : [ "obj-66", 0 ]
				}

			}
, 			{
				"patchline" : 				{
					"destination" : [ "obj-61", 0 ],
					"midpoints" : [ 899.0, 228.0, 818.0, 228.0 ],
					"source" : [ "obj-69", 0 ]
				}

			}
, 			{
				"patchline" : 				{
					"destination" : [ "obj-224", 0 ],
					"source" : [ "obj-7", 0 ]
				}

			}
, 			{
				"patchline" : 				{
					"destination" : [ "obj-64", 0 ],
					"midpoints" : [ 502.166656, 293.5, 557.5, 293.5 ],
					"source" : [ "obj-78", 2 ]
				}

			}
, 			{
				"patchline" : 				{
					"destination" : [ "obj-79", 0 ],
					"source" : [ "obj-78", 3 ]
				}

			}
, 			{
				"patchline" : 				{
					"destination" : [ "obj-79", 0 ],
					"midpoints" : [ 481.833344, 303.5, 522.5, 303.5 ],
					"source" : [ "obj-78", 1 ]
				}

			}
, 			{
				"patchline" : 				{
					"destination" : [ "obj-80", 0 ],
					"source" : [ "obj-78", 0 ]
				}

			}
, 			{
				"patchline" : 				{
					"destination" : [ "obj-112", 0 ],
					"source" : [ "obj-79", 1 ]
				}

			}
, 			{
				"patchline" : 				{
					"destination" : [ "obj-80", 1 ],
					"midpoints" : [ 522.5, 383.0, 504.25, 383.0, 504.25, 310.0, 472.0, 310.0 ],
					"source" : [ "obj-79", 0 ]
				}

			}
, 			{
				"patchline" : 				{
					"destination" : [ "obj-81", 0 ],
					"source" : [ "obj-80", 0 ]
				}

			}
, 			{
				"patchline" : 				{
					"destination" : [ "obj-92", 0 ],
					"source" : [ "obj-81", 0 ]
				}

			}
, 			{
				"patchline" : 				{
					"destination" : [ "obj-64", 0 ],
					"midpoints" : [ 632.5, 313.5, 557.5, 313.5 ],
					"source" : [ "obj-83", 0 ]
				}

			}
, 			{
				"patchline" : 				{
					"destination" : [ "obj-66", 0 ],
					"source" : [ "obj-86", 0 ]
				}

			}
, 			{
				"patchline" : 				{
					"destination" : [ "obj-17", 0 ],
					"source" : [ "obj-9", 0 ]
				}

			}
, 			{
				"patchline" : 				{
					"destination" : [ "obj-104", 0 ],
					"source" : [ "obj-92", 0 ]
				}

			}
, 			{
				"patchline" : 				{
					"destination" : [ "obj-64", 0 ],
					"midpoints" : [ 472.0, 413.0, 490.75, 413.0, 490.75, 312.0, 557.5, 312.0 ],
					"source" : [ "obj-92", 1 ]
				}

			}
, 			{
				"patchline" : 				{
					"destination" : [ "obj-101", 0 ],
					"source" : [ "obj-94", 1 ]
				}

			}
, 			{
				"patchline" : 				{
					"destination" : [ "obj-25", 0 ],
					"midpoints" : [ 557.5, 571.0, 557.5, 571.0 ],
					"source" : [ "obj-94", 0 ]
				}

			}
, 			{
				"patchline" : 				{
					"destination" : [ "obj-30", 0 ],
					"source" : [ "obj-97", 0 ]
				}

			}
, 			{
				"patchline" : 				{
					"destination" : [ "obj-94", 0 ],
					"source" : [ "obj-99", 0 ]
				}

			}
 ],
		"dependency_cache" : [ 			{
				"name" : "Queue.java",
				"bootpath" : "C74:/packages/max-mxj/java-classes/classes/list",
				"type" : "TEXT",
				"implicit" : 1
			}
 ],
		"autosave" : 0
	}

}
